# xmcd
#
# Track frame offsets: 
#        150
#        13421
#        29232
#        55828
#        73802
#        86900
#        100838
#        121751
#        143655
#        165774
#        186078
#        212573
#        233240
#        253452
#
# Disc length: 3632 seconds
#
# Revision: 0
# Processed by: cddbd v1.5.2PL0 Copyright (c) Steve Scherf et al.
# Submitted via: ExactAudioCopy v0.99pb4
#
DISCID=c90e2e0e
DTITLE=Amber Dust - May These Images Die With Dignity
DYEAR=2010
DGENRE=Indie
TTITLE0=Held Down, Held Together
TTITLE1=The Cruelest of Judges
TTITLE2=Run and Hide
TTITLE3=The Commanding Wind
TTITLE4=Undiscovered
TTITLE5=Rebuilding
TTITLE6=Breath Against the Glass
TTITLE7=If You Want to See Me Run
TTITLE8=An Uncaring Removal
TTITLE9=The Flood (It Separates Us)
TTITLE10=Once Simple, Now Sacred
TTITLE11=Trail of Smoke
TTITLE12=There is Risk in Dreaming
TTITLE13=If Only for a Second
EXTD=
EXTT0=
EXTT1=
EXTT2=
EXTT3=
EXTT4=
EXTT5=
EXTT6=
EXTT7=
EXTT8=
EXTT9=
EXTT10=
EXTT11=
EXTT12=
EXTT13=
PLAYORDER=
